<mxfile host="app.diagrams.net" modified="2023-06-26T11:53:07.524Z" agent="Mozilla/5.0 (Macintosh; Intel Mac OS X 10_15_7) AppleWebKit/537.36 (KHTML, like Gecko) Chrome/114.0.0.0 Safari/537.36" version="21.4.0" etag="FFGkb8UaFCbSWPyVZCaB" type="github">
  <diagram name="第 1 页" id="d2n9Q1br7z3izl8uEKcL">
    <mxGraphModel>
      <root>
        <mxCell id="0" />
        <mxCell id="1" parent="0" />
      </root>
    </mxGraphModel>
  </diagram>
</mxfile>
